<svg width="540" height="130" viewBox="0 0 540 130" fill="none" xmlns="http://www.w3.org/2000/svg">
<g clip-path="url(#clip0_8_2)">
<path d="M48.3055 3.77256C47.794 4.3288 47.2825 4.54511 46.5436 4.54511C45.0374 4.54511 42.7923 5.25586 41.0872 6.27563C39.2684 7.3572 37.6485 9.30403 36.6539 11.6217C35.9434 13.1977 35.8582 13.7848 35.7445 17.8639L35.6024 22.3756L34.7214 22.6537C33.9257 22.901 33.8404 23.0864 33.7552 24.2297L33.6699 25.5276L21.8193 25.6203C10.0256 25.713 9.96877 25.713 8.71835 26.4238C6.72904 27.5981 4.79657 29.7921 3.85875 31.9244L3.0062 33.8403L3.06303 75.9907L3.14829 118.11L3.80192 119.563C4.79657 121.726 6.44485 123.611 8.46258 124.785L10.253 125.836L21.1089 125.928C28.242 125.99 32.5048 125.928 33.471 125.712C37.137 124.878 39.8936 122.529 41.4851 118.883L42.366 116.874L42.5081 95.8299C42.6218 77.814 42.7071 74.7237 43.0765 74.1366C43.588 73.3022 69.8185 50.8673 70.1311 50.96C70.2447 51.0218 76.2695 56.1207 83.5447 62.332C92.6102 70.0575 96.9015 73.9203 97.2141 74.6001C97.5835 75.4345 97.6403 78.1848 97.6403 95.6136C97.6403 116.565 97.6688 117.214 98.9192 119.779C99.6296 121.324 102.13 123.889 103.608 124.692C104.319 125.063 105.598 125.496 106.422 125.681C108.809 126.176 127.537 126.083 129.555 125.558C132.482 124.816 134.67 122.776 136.46 119.192C136.972 118.141 137 116.72 137 75.9289V33.7476L136.062 31.6771C135.039 29.3904 133.363 27.5981 131.231 26.4238C129.896 25.713 129.81 25.713 118.187 25.6203L106.45 25.5276V24.477C106.45 23.2409 105.825 22.4683 104.859 22.4683H104.177V18.2038C104.177 15.8862 104.035 13.4449 103.864 12.796C103.409 11.0345 101.335 7.97525 99.8286 6.83187C98.2087 5.59579 95.2532 4.54511 93.4912 4.54511C92.7807 4.54511 92.184 4.3906 92.0419 4.11248C91.4451 3.03091 90.9051 3.00001 69.79 3.00001H49.016L48.3055 3.77256ZM48.1919 11.0346L48.9876 11.9616H70.0742H91.1609L91.985 11.0036C92.7523 10.1075 92.9228 10.0457 94.3722 10.1693C96.2762 10.3547 97.754 11.4672 98.7202 13.5067C99.2602 14.7119 99.3455 15.3299 99.3455 18.6056V22.3447L98.4361 22.6228C97.6119 22.901 97.4698 23.0864 97.3562 24.1679L97.2141 25.404L70.0174 25.4967L42.7923 25.5585V24.5079C42.7923 23.2409 42.1671 22.4683 41.1725 22.4683H40.462L40.5472 18.5129C40.6609 14.8973 40.7178 14.4647 41.4566 13.1359C43.0481 10.1693 46.5152 9.08772 48.1919 11.0346ZM129.412 31.4608C130.151 31.8626 130.947 32.6351 131.402 33.3768C132.141 34.6128 132.169 34.7674 132.254 40.1134C132.34 44.4706 132.254 45.923 131.885 47.3136C130.975 50.651 128.531 53.5558 125.547 54.6992C124.411 55.1627 122.961 55.2245 115.061 55.2245H105.882V53.2159C105.882 50.4038 105.455 49.9712 102.614 49.9712C100.71 49.9712 100.369 50.0639 99.7717 50.7437C99.1749 51.3618 99.0613 51.7944 99.0613 53.3704V55.2245H91.0756H83.09L76.5821 49.6312L70.0458 44.038L68.2839 45.5213C67.3176 46.3556 64.3621 48.8587 61.7191 51.1146L56.9164 55.2245H49.3002H41.6556V53.0923C41.6556 50.3111 41.2861 49.9712 38.3022 49.9712C36.4834 49.9712 36.1424 50.0639 35.5456 50.7437C34.9488 51.3618 34.8351 51.7944 34.8351 53.3704V55.2554L24.8317 55.1627C14.9705 55.07 14.7715 55.07 13.5779 54.3593C12.0717 53.494 10.0256 51.4854 9.28672 50.1566C7.97946 47.8698 7.80895 46.5719 7.8942 40.2679L7.97946 34.3038L8.8036 33.1604C9.2583 32.5115 10.1393 31.708 10.7929 31.399C11.9297 30.8428 13.919 30.8119 70.0458 30.8119H128.162L129.412 31.4608ZM99.0613 62.4247C99.0613 65.3913 99.4023 65.7312 102.386 65.7312C105.569 65.7312 105.882 65.4531 105.882 62.7337V60.7869H119.096H132.311V88.3516C132.311 114.526 132.283 116.009 131.771 117.183C131.146 118.667 130.237 119.624 128.844 120.273C127.963 120.644 126.201 120.737 118.073 120.737C111.224 120.737 108.013 120.613 107.189 120.366C105.598 119.841 103.182 117.276 102.784 115.638C102.585 114.804 102.472 107.696 102.472 93.7594C102.472 77.0105 102.386 72.9314 102.074 72.128C101.733 71.2318 98.6066 68.3888 89.7115 60.8796C89.3421 60.5706 90.2515 60.5088 94.1733 60.4779H99.0613V62.4247ZM34.8351 62.5792C34.8351 65.3913 35.1761 65.7312 38.2453 65.7312C41.3998 65.7312 41.6556 65.5149 41.6556 62.7646V60.7869H45.9184C48.2771 60.7869 50.1812 60.8487 50.1812 60.9105C50.1812 60.9723 47.6519 63.1973 44.5543 65.8239C41.4851 68.4506 38.7 70.9228 38.3874 71.2936C37.8475 71.9735 37.8191 72.5297 37.677 93.6667C37.5349 114.031 37.5065 115.391 36.9949 116.411C36.256 117.925 35.1761 119.13 33.8404 119.903C32.7321 120.552 32.4195 120.582 22.0467 120.582H11.3897L10.3098 119.872C9.74142 119.47 8.9457 118.543 8.54783 117.832L7.83737 116.503V88.6606V60.7869H21.3362H34.8351V62.5792Z" fill="url(#paint0_linear_8_2)"/>
<path d="M57.854 83.469C57.854 87.1773 57.9109 87.6717 58.4508 88.4133C59.0192 89.2168 59.0476 89.2168 63.1399 89.2168H67.2322V85.5085C67.2322 79.6681 66.8912 79.3281 61.4064 79.3281H57.854V83.469Z" fill="#0B4E92"/>
<path d="M72.9159 83.469C72.9159 87.1773 72.9727 87.6717 73.5127 88.4133C74.0811 89.2168 74.1095 89.2168 78.0597 89.2168H82.0099V85.2304C82.0099 83.0364 81.9246 80.9968 81.8394 80.7187C81.4699 79.6681 80.1911 79.3281 76.4682 79.3281H72.9159V83.469Z" fill="#0B4E92"/>
<path d="M57.9109 100.063C58.0245 105.78 57.854 105.595 63.282 105.595H67.2322V101.887C67.2322 97.9312 66.9196 96.6643 65.8397 96.0153C65.5271 95.8608 63.5946 95.7063 61.5485 95.7063H57.7972L57.9109 100.063Z" fill="#0A4D92"/>
<path d="M72.9159 99.878C72.9159 103.926 72.9443 104.112 73.6264 104.822C74.28 105.564 74.4505 105.595 78.1734 105.595H82.0099V101.454C82.0099 95.7062 82.152 95.8917 76.9229 95.768L72.9159 95.6444V99.878Z" fill="#0A4D92"/>
</g>
<path d="M154.352 58.128V57.168C154.352 56.496 154.688 56.16 155.36 56.16H159.44C160.112 56.16 160.448 56.496 160.448 57.168V57.552C160.448 58.768 160.688 59.6 161.168 60.048C161.648 60.496 162.528 60.72 163.808 60.72H166.064C167.312 60.72 168.176 60.48 168.656 60C169.168 59.52 169.424 58.624 169.424 57.312V56.736C169.424 55.808 169.04 55.104 168.272 54.624C167.536 54.112 166.608 53.808 165.488 53.712C164.368 53.616 163.152 53.44 161.84 53.184C160.56 52.896 159.36 52.544 158.24 52.128C157.12 51.68 156.176 50.832 155.408 49.584C154.672 48.304 154.304 46.672 154.304 44.688V43.008C154.304 40.512 155.008 38.576 156.416 37.2C157.824 35.824 159.776 35.136 162.272 35.136H167.072C169.6 35.136 171.568 35.824 172.976 37.2C174.384 38.576 175.088 40.512 175.088 43.008V43.92C175.088 44.592 174.752 44.928 174.08 44.928H170C169.328 44.928 168.992 44.592 168.992 43.92V43.632C168.992 42.384 168.752 41.536 168.272 41.088C167.792 40.64 166.912 40.416 165.632 40.416H163.76C162.448 40.416 161.552 40.672 161.072 41.184C160.624 41.664 160.4 42.624 160.4 44.064V44.976C160.4 46.48 161.712 47.344 164.336 47.568C167.056 47.792 169.472 48.336 171.584 49.2C172.704 49.68 173.632 50.544 174.368 51.792C175.136 53.008 175.52 54.576 175.52 56.496V58.128C175.52 60.624 174.816 62.56 173.408 63.936C172 65.312 170.048 66 167.552 66H162.32C159.824 66 157.872 65.312 156.464 63.936C155.056 62.56 154.352 60.624 154.352 58.128ZM186.083 66H182.003C181.331 66 180.995 65.664 180.995 64.992V36.144C180.995 35.472 181.331 35.136 182.003 35.136H186.083C186.755 35.136 187.091 35.472 187.091 36.144V49.824H187.187C187.443 49.056 187.939 48.064 188.675 46.848L195.971 36.144C196.387 35.472 197.011 35.136 197.843 35.136H202.547C202.899 35.136 203.107 35.248 203.171 35.472C203.267 35.664 203.187 35.92 202.931 36.24L193.811 48.864L203.987 64.8C204.211 65.184 204.243 65.488 204.083 65.712C203.955 65.904 203.667 66 203.219 66H199.715C198.595 66 197.843 65.664 197.459 64.992L190.115 53.232L187.091 56.784V64.992C187.091 65.664 186.755 66 186.083 66ZM219.089 66H215.009C214.337 66 214.001 65.664 214.001 64.992V54.72L205.217 36.192C205.089 35.904 205.089 35.664 205.217 35.472C205.377 35.248 205.601 35.136 205.889 35.136H210.977C211.489 35.136 211.873 35.472 212.129 36.144L216.929 47.808H217.265L221.969 36.144C222.193 35.472 222.577 35.136 223.121 35.136H228.209C228.529 35.136 228.753 35.232 228.881 35.424C229.041 35.616 229.041 35.872 228.881 36.192L220.097 54.72V64.992C220.097 65.664 219.761 66 219.089 66ZM243.214 66H236.493C235.789 66 235.39 65.664 235.294 64.992L230.158 36.144C230.062 35.472 230.398 35.136 231.166 35.136H236.158C236.894 35.136 237.278 35.472 237.31 36.144L240.094 59.808H240.43L245.038 36C245.134 35.424 245.47 35.136 246.046 35.136H251.422C252.03 35.136 252.382 35.408 252.478 35.952L257.182 59.808H257.566L260.302 36.192C260.334 35.488 260.718 35.136 261.454 35.136H266.446C267.214 35.136 267.55 35.488 267.454 36.192L262.27 64.992C262.174 65.664 261.806 66 261.166 66H254.398C253.726 66 253.342 65.664 253.246 64.992L248.926 42.48H248.734L244.366 64.992C244.238 65.664 243.854 66 243.214 66ZM279.676 60.72H283.084C284.108 60.72 284.828 60.512 285.244 60.096C285.692 59.648 285.916 58.912 285.916 57.888V43.248C285.916 42.224 285.692 41.504 285.244 41.088C284.828 40.64 284.108 40.416 283.084 40.416H279.676C278.652 40.416 277.932 40.64 277.516 41.088C277.1 41.504 276.892 42.224 276.892 43.248V57.888C276.892 58.912 277.1 59.648 277.516 60.096C277.932 60.512 278.652 60.72 279.676 60.72ZM284.092 66H278.716C276.188 66 274.236 65.328 272.86 63.984C271.484 62.64 270.796 60.704 270.796 58.176V42.96C270.796 40.432 271.484 38.496 272.86 37.152C274.236 35.808 276.188 35.136 278.716 35.136H284.092C286.62 35.136 288.572 35.808 289.948 37.152C291.324 38.496 292.012 40.432 292.012 42.96V58.176C292.012 60.704 291.324 62.64 289.948 63.984C288.572 65.328 286.62 66 284.092 66ZM302.849 66H298.769C298.097 66 297.761 65.664 297.761 64.992V36.144C297.761 35.472 298.097 35.136 298.769 35.136H310.193C312.689 35.136 314.641 35.824 316.049 37.2C317.457 38.576 318.161 40.512 318.161 43.008V46.752C318.161 50.368 316.737 52.768 313.889 53.952V54.144L319.025 64.848C319.313 65.616 319.041 66 318.209 66H314.321C313.745 66 313.329 65.936 313.073 65.808C312.817 65.68 312.609 65.408 312.449 64.992L307.649 54.624H304.433C304.049 54.624 303.857 54.8 303.857 55.152V64.992C303.857 65.664 303.521 66 302.849 66ZM304.385 49.728H309.089C310.113 49.728 310.865 49.52 311.345 49.104C311.825 48.656 312.065 47.952 312.065 46.992V43.248C312.065 42.256 311.825 41.536 311.345 41.088C310.865 40.64 310.113 40.416 309.089 40.416H304.385C304.033 40.416 303.857 40.592 303.857 40.944V49.2C303.857 49.552 304.033 49.728 304.385 49.728ZM329.099 66H325.019C324.347 66 324.011 65.664 324.011 64.992V36.144C324.011 35.472 324.347 35.136 325.019 35.136H329.099C329.771 35.136 330.107 35.472 330.107 36.144V49.824H330.203C330.459 49.056 330.955 48.064 331.691 46.848L338.987 36.144C339.403 35.472 340.027 35.136 340.859 35.136H345.563C345.915 35.136 346.123 35.248 346.187 35.472C346.283 35.664 346.203 35.92 345.947 36.24L336.827 48.864L347.003 64.8C347.227 65.184 347.259 65.488 347.099 65.712C346.971 65.904 346.683 66 346.235 66H342.731C341.611 66 340.859 65.664 340.475 64.992L333.131 53.232L330.107 56.784V64.992C330.107 65.664 329.771 66 329.099 66ZM367.947 60.912H373.323C374.379 60.912 375.131 60.704 375.579 60.288C376.059 59.84 376.299 59.12 376.299 58.128V55.344C376.299 54.352 376.059 53.648 375.579 53.232C375.099 52.816 374.315 52.608 373.227 52.608H367.947C367.595 52.608 367.419 52.784 367.419 53.136V60.384C367.419 60.736 367.595 60.912 367.947 60.912ZM367.947 47.664H372.843C373.867 47.664 374.619 47.456 375.099 47.04C375.579 46.592 375.819 45.872 375.819 44.88V43.008C375.819 42.016 375.579 41.312 375.099 40.896C374.651 40.448 373.915 40.224 372.891 40.224H367.947C367.595 40.224 367.419 40.4 367.419 40.752V47.136C367.419 47.488 367.595 47.664 367.947 47.664ZM361.323 64.992V36.144C361.323 35.472 361.659 35.136 362.331 35.136H373.851C376.379 35.136 378.331 35.808 379.707 37.152C381.083 38.496 381.771 40.416 381.771 42.912V44.88C381.771 47.6 380.507 49.36 377.979 50.16C379.259 50.352 380.283 50.88 381.051 51.744C381.819 52.576 382.203 53.776 382.203 55.344V58.224C382.203 60.72 381.515 62.64 380.139 63.984C378.763 65.328 376.827 66 374.331 66H362.331C361.659 66 361.323 65.664 361.323 64.992ZM396.348 60.72H399.756C400.78 60.72 401.5 60.512 401.916 60.096C402.364 59.648 402.588 58.912 402.588 57.888V43.248C402.588 42.224 402.364 41.504 401.916 41.088C401.5 40.64 400.78 40.416 399.756 40.416H396.348C395.324 40.416 394.604 40.64 394.188 41.088C393.772 41.504 393.564 42.224 393.564 43.248V57.888C393.564 58.912 393.772 59.648 394.188 60.096C394.604 60.512 395.324 60.72 396.348 60.72ZM400.764 66H395.388C392.86 66 390.908 65.328 389.532 63.984C388.156 62.64 387.468 60.704 387.468 58.176V42.96C387.468 40.432 388.156 38.496 389.532 37.152C390.908 35.808 392.86 35.136 395.388 35.136H400.764C403.292 35.136 405.244 35.808 406.62 37.152C407.996 38.496 408.684 40.432 408.684 42.96V58.176C408.684 60.704 407.996 62.64 406.62 63.984C405.244 65.328 403.292 66 400.764 66ZM419.521 66H415.441C414.769 66 414.433 65.664 414.433 64.992V36.144C414.433 35.472 414.769 35.136 415.441 35.136H426.865C429.361 35.136 431.313 35.824 432.721 37.2C434.129 38.576 434.833 40.512 434.833 43.008V46.752C434.833 50.368 433.409 52.768 430.561 53.952V54.144L435.697 64.848C435.985 65.616 435.713 66 434.881 66H430.993C430.417 66 430.001 65.936 429.745 65.808C429.489 65.68 429.281 65.408 429.121 64.992L424.321 54.624H421.105C420.721 54.624 420.529 54.8 420.529 55.152V64.992C420.529 65.664 420.193 66 419.521 66ZM421.057 49.728H425.761C426.785 49.728 427.537 49.52 428.017 49.104C428.497 48.656 428.737 47.952 428.737 46.992V43.248C428.737 42.256 428.497 41.536 428.017 41.088C427.537 40.64 426.785 40.416 425.761 40.416H421.057C420.705 40.416 420.529 40.592 420.529 40.944V49.2C420.529 49.552 420.705 49.728 421.057 49.728ZM447.019 36.144V64.992C447.019 65.664 446.683 66 446.011 66H441.931C441.259 66 440.923 65.664 440.923 64.992V36.144C440.923 35.472 441.259 35.136 441.931 35.136H446.011C446.683 35.136 447.019 35.472 447.019 36.144ZM466.055 66H459.767C459.095 66 458.695 65.664 458.567 64.992L451.127 36.24C450.903 35.504 451.223 35.136 452.087 35.136H456.599C457.239 35.136 457.623 35.472 457.751 36.144L462.791 59.76H462.983L468.023 36.144C468.151 35.472 468.535 35.136 469.175 35.136H473.687C474.487 35.136 474.807 35.504 474.647 36.24L467.207 64.992C467.047 65.664 466.663 66 466.055 66ZM481.727 66H477.119C476.543 66 476.351 65.664 476.543 64.992L484.127 36.144C484.351 35.472 484.831 35.136 485.567 35.136H491.951C492.751 35.136 493.231 35.472 493.391 36.144L500.975 64.992C501.167 65.664 500.975 66 500.399 66H495.791C495.439 66 495.199 65.936 495.071 65.808C494.943 65.648 494.847 65.376 494.783 64.992L493.439 59.712H484.079L482.735 64.992C482.671 65.376 482.559 65.648 482.399 65.808C482.271 65.936 482.047 66 481.727 66ZM488.687 40.944L485.231 54.816H492.335L488.879 40.944H488.687ZM522.029 66H506.237C505.565 66 505.229 65.664 505.229 64.992V36.144C505.229 35.472 505.565 35.136 506.237 35.136H510.317C510.989 35.136 511.325 35.472 511.325 36.144V60.144C511.325 60.496 511.517 60.672 511.901 60.672H522.029C522.669 60.672 522.989 61.024 522.989 61.728V64.992C522.989 65.664 522.669 66 522.029 66ZM533.128 36.144V64.992C533.128 65.664 532.792 66 532.12 66H528.04C527.368 66 527.032 65.664 527.032 64.992V36.144C527.032 35.472 527.368 35.136 528.04 35.136H532.12C532.792 35.136 533.128 35.472 533.128 36.144Z" fill="#0A4E92"/>
<path d="M168.28 113H155.72C155.347 113 155.16 112.813 155.16 112.44V87.84C155.16 87.4667 155.347 87.28 155.72 87.28H168.28C168.653 87.28 168.84 87.4667 168.84 87.84V89.28C168.84 89.6533 168.653 89.84 168.28 89.84H158.48C158.213 89.84 158.08 89.96 158.08 90.2V98.28C158.08 98.52 158.213 98.64 158.48 98.64H167.04C167.413 98.64 167.6 98.8267 167.6 99.2V100.64C167.6 101.013 167.413 101.2 167.04 101.2H158.48C158.213 101.2 158.08 101.32 158.08 101.56V110.08C158.08 110.32 158.213 110.44 158.48 110.44H168.28C168.653 110.44 168.84 110.627 168.84 111V112.44C168.84 112.813 168.653 113 168.28 113ZM176.539 113H174.739C174.365 113 174.179 112.813 174.179 112.44V85.44C174.179 85.0667 174.365 84.88 174.739 84.88H176.539C176.912 84.88 177.099 85.0667 177.099 85.44V112.44C177.099 112.813 176.912 113 176.539 113ZM196.807 113H188.327C186.487 113 185.034 112.48 183.967 111.44C182.927 110.4 182.407 108.947 182.407 107.08V98.52C182.407 96.6533 182.927 95.2 183.967 94.16C185.034 93.12 186.487 92.6 188.327 92.6H191.687C193.527 92.6 194.967 93.12 196.007 94.16C197.047 95.2 197.567 96.6533 197.567 98.52V103.6C197.567 104 197.38 104.2 197.007 104.2H185.687C185.42 104.2 185.287 104.32 185.287 104.56V107C185.287 109.32 186.407 110.48 188.647 110.48H196.807C197.18 110.48 197.367 110.667 197.367 111.04V112.48C197.367 112.827 197.18 113 196.807 113ZM185.687 102.08H194.327C194.594 102.08 194.727 101.947 194.727 101.68V98.6C194.727 96.3067 193.607 95.16 191.367 95.16H188.647C186.407 95.16 185.287 96.3067 185.287 98.6V101.68C185.287 101.947 185.42 102.08 185.687 102.08ZM200.934 92.6H202.814C203.161 92.6 203.374 92.7867 203.454 93.16L208.254 110.08H208.454L213.214 93.16C213.321 92.7867 213.548 92.6 213.894 92.6H215.774C216.148 92.6 216.281 92.7867 216.174 93.16L210.414 112.4C210.334 112.8 210.094 113 209.694 113H206.974C206.601 113 206.361 112.8 206.254 112.4L200.534 93.16C200.428 92.7867 200.561 92.6 200.934 92.6ZM227.321 113H225.241C223.401 113 221.948 112.48 220.881 111.44C219.841 110.4 219.321 108.947 219.321 107.08V98.52C219.321 96.6533 219.841 95.2 220.881 94.16C221.948 93.12 223.401 92.6 225.241 92.6H233.921C234.294 92.6 234.481 92.7867 234.481 93.16V112.44C234.481 112.813 234.294 113 233.921 113H232.121C231.748 113 231.561 112.813 231.561 112.44V110.88H231.401C230.734 112.293 229.374 113 227.321 113ZM231.561 106.76V95.52C231.561 95.28 231.428 95.16 231.161 95.16H225.561C223.348 95.16 222.241 96.32 222.241 98.64V106.96C222.241 109.28 223.348 110.44 225.561 110.44H227.841C229.041 110.44 229.961 110.12 230.601 109.48C231.241 108.84 231.561 107.933 231.561 106.76ZM240.754 95.16H238.554C238.181 95.16 237.994 94.9867 237.994 94.64V93.16C237.994 92.7867 238.181 92.6 238.554 92.6H240.754C241.021 92.6 241.154 92.48 241.154 92.24V88.8C241.154 88.4267 241.341 88.24 241.714 88.24H243.514C243.861 88.24 244.034 88.4267 244.034 88.8V92.24C244.034 92.48 244.181 92.6 244.474 92.6H248.714C249.114 92.6 249.314 92.7867 249.314 93.16V94.64C249.314 94.9867 249.114 95.16 248.714 95.16H244.474C244.181 95.16 244.034 95.28 244.034 95.52V107.04C244.034 109.307 245.208 110.44 247.554 110.44H249.114C249.514 110.44 249.714 110.627 249.714 111V112.48C249.714 112.827 249.514 113 249.114 113H247.194C245.354 113 243.888 112.493 242.794 111.48C241.701 110.44 241.154 109 241.154 107.16V95.52C241.154 95.28 241.021 95.16 240.754 95.16ZM267.94 113H259.46C257.62 113 256.166 112.48 255.1 111.44C254.06 110.4 253.54 108.947 253.54 107.08V98.52C253.54 96.6533 254.06 95.2 255.1 94.16C256.166 93.12 257.62 92.6 259.46 92.6H262.82C264.66 92.6 266.1 93.12 267.14 94.16C268.18 95.2 268.7 96.6533 268.7 98.52V103.6C268.7 104 268.513 104.2 268.14 104.2H256.82C256.553 104.2 256.42 104.32 256.42 104.56V107C256.42 109.32 257.54 110.48 259.78 110.48H267.94C268.313 110.48 268.5 110.667 268.5 111.04V112.48C268.5 112.827 268.313 113 267.94 113ZM256.82 102.08H265.46C265.726 102.08 265.86 101.947 265.86 101.68V98.6C265.86 96.3067 264.74 95.16 262.5 95.16H259.78C257.54 95.16 256.42 96.3067 256.42 98.6V101.68C256.42 101.947 256.553 102.08 256.82 102.08ZM291.903 113H290.103C289.73 113 289.543 112.813 289.543 112.44V103.36L281.943 87.88C281.863 87.6933 281.863 87.5467 281.943 87.44C282.023 87.3333 282.143 87.28 282.303 87.28H284.543C284.837 87.28 285.063 87.4667 285.223 87.84L290.943 99.96H291.143L296.823 87.84C296.93 87.4667 297.143 87.28 297.463 87.28H299.743C300.197 87.28 300.317 87.48 300.103 87.88L292.463 103.36V112.44C292.463 112.813 292.277 113 291.903 113ZM312.743 113H309.303C307.463 113 306.01 112.48 304.943 111.44C303.903 110.4 303.383 108.947 303.383 107.08V98.52C303.383 96.6533 303.903 95.2 304.943 94.16C306.01 93.12 307.463 92.6 309.303 92.6H312.743C314.583 92.6 316.023 93.12 317.063 94.16C318.13 95.2 318.663 96.6533 318.663 98.52V107.08C318.663 108.947 318.13 110.4 317.063 111.44C316.023 112.48 314.583 113 312.743 113ZM309.623 110.44H312.423C314.663 110.44 315.783 109.293 315.783 107V98.6C315.783 96.3067 314.663 95.16 312.423 95.16H309.623C307.383 95.16 306.263 96.3067 306.263 98.6V107C306.263 109.293 307.383 110.44 309.623 110.44ZM331.583 113H329.343C327.53 113 326.117 112.48 325.103 111.44C324.09 110.4 323.583 108.947 323.583 107.08V93.16C323.583 92.7867 323.77 92.6 324.143 92.6H325.943C326.317 92.6 326.503 92.7867 326.503 93.16V106.96C326.503 109.28 327.61 110.44 329.823 110.44H332.103C333.303 110.44 334.223 110.12 334.863 109.48C335.503 108.84 335.823 107.933 335.823 106.76V93.16C335.823 92.7867 336.01 92.6 336.383 92.6H338.183C338.557 92.6 338.743 92.7867 338.743 93.16V112.44C338.743 112.813 338.557 113 338.183 113H336.383C336.01 113 335.823 112.813 335.823 112.44V110.88H335.663C334.997 112.293 333.637 113 331.583 113ZM346.612 113H344.812C344.439 113 344.252 112.813 344.252 112.44V93.16C344.252 92.7867 344.439 92.6 344.812 92.6H346.612C346.986 92.6 347.172 92.7867 347.172 93.16V94.76H347.332C347.599 94.1733 348.106 93.6667 348.852 93.24C349.599 92.8133 350.479 92.6 351.492 92.6H353.052C353.399 92.6 353.572 92.7867 353.572 93.16V94.64C353.572 94.8267 353.532 94.9733 353.452 95.08C353.372 95.16 353.239 95.1867 353.052 95.16H350.892C349.692 95.16 348.772 95.52 348.132 96.24C347.492 96.96 347.172 97.9467 347.172 99.2V112.44C347.172 112.813 346.986 113 346.612 113ZM374.538 113H371.458C371.085 113 370.858 112.813 370.778 112.44L365.658 87.84C365.578 87.4667 365.751 87.28 366.178 87.28H368.338C368.738 87.28 368.951 87.4667 368.978 87.84L373.018 109.88H373.258L378.658 87.8C378.738 87.4533 378.951 87.28 379.298 87.28H381.698C382.045 87.28 382.258 87.4533 382.338 87.8L387.818 109.88H388.058L392.058 87.88C392.138 87.48 392.365 87.28 392.738 87.28H394.898C395.325 87.28 395.498 87.48 395.418 87.88L390.258 112.44C390.178 112.813 389.965 113 389.618 113H386.538C386.165 113 385.938 112.813 385.858 112.44L380.618 90.96H380.458L375.178 112.44C375.098 112.813 374.885 113 374.538 113ZM408.173 113H404.733C402.893 113 401.44 112.48 400.373 111.44C399.333 110.4 398.813 108.947 398.813 107.08V98.52C398.813 96.6533 399.333 95.2 400.373 94.16C401.44 93.12 402.893 92.6 404.733 92.6H408.173C410.013 92.6 411.453 93.12 412.493 94.16C413.56 95.2 414.093 96.6533 414.093 98.52V107.08C414.093 108.947 413.56 110.4 412.493 111.44C411.453 112.48 410.013 113 408.173 113ZM405.053 110.44H407.853C410.093 110.44 411.213 109.293 411.213 107V98.6C411.213 96.3067 410.093 95.16 407.853 95.16H405.053C402.813 95.16 401.693 96.3067 401.693 98.6V107C401.693 109.293 402.813 110.44 405.053 110.44ZM421.573 113H419.773C419.4 113 419.213 112.813 419.213 112.44V93.16C419.213 92.7867 419.4 92.6 419.773 92.6H421.573C421.946 92.6 422.133 92.7867 422.133 93.16V94.76H422.293C422.56 94.1733 423.066 93.6667 423.813 93.24C424.56 92.8133 425.44 92.6 426.453 92.6H428.013C428.36 92.6 428.533 92.7867 428.533 93.16V94.64C428.533 94.8267 428.493 94.9733 428.413 95.08C428.333 95.16 428.2 95.1867 428.013 95.16H425.853C424.653 95.16 423.733 95.52 423.093 96.24C422.453 96.96 422.133 97.9467 422.133 99.2V112.44C422.133 112.813 421.946 113 421.573 113ZM443.703 92.6H445.703C445.916 92.6 446.049 92.6667 446.103 92.8C446.183 92.9067 446.156 93.0533 446.023 93.24L440.143 102.36V102.52L446.623 112.36C446.729 112.547 446.743 112.707 446.663 112.84C446.583 112.947 446.436 113 446.223 113H444.343C443.836 113 443.463 112.813 443.223 112.44L437.063 102.92C436.903 102.653 436.903 102.373 437.063 102.08L442.743 93.12C442.903 92.7733 443.223 92.6 443.703 92.6ZM434.503 113H432.703C432.329 113 432.143 112.813 432.143 112.44V85.44C432.143 85.0667 432.329 84.88 432.703 84.88H434.503C434.876 84.88 435.063 85.0667 435.063 85.44V112.44C435.063 112.813 434.876 113 434.503 113ZM457.597 113H455.237C453.424 113 452.011 112.48 450.997 111.44C449.984 110.4 449.477 108.947 449.477 107.08V98.52C449.477 96.6533 449.984 95.2 450.997 94.16C452.011 93.12 453.424 92.6 455.237 92.6H457.597C459.677 92.6 461.051 93.3067 461.717 94.72H461.877V85.44C461.877 85.0667 462.051 84.88 462.397 84.88H464.237C464.584 84.88 464.757 85.0667 464.757 85.44V112.44C464.757 112.813 464.584 113 464.237 113H462.397C462.051 113 461.877 112.813 461.877 112.44V110.88H461.717C461.051 112.293 459.677 113 457.597 113ZM461.877 106.76V98.84C461.877 97.6667 461.557 96.76 460.917 96.12C460.277 95.48 459.357 95.16 458.157 95.16H455.717C453.504 95.16 452.397 96.32 452.397 98.64V106.96C452.397 109.28 453.504 110.44 455.717 110.44H458.157C459.357 110.44 460.277 110.12 460.917 109.48C461.557 108.84 461.877 107.933 461.877 106.76ZM477.868 113H475.788C473.948 113 472.494 112.48 471.428 111.44C470.388 110.4 469.868 108.947 469.868 107.08V98.52C469.868 96.6533 470.388 95.2 471.428 94.16C472.494 93.12 473.948 92.6 475.788 92.6H484.468C484.841 92.6 485.028 92.7867 485.028 93.16V112.44C485.028 112.813 484.841 113 484.468 113H482.668C482.294 113 482.108 112.813 482.108 112.44V110.88H481.948C481.281 112.293 479.921 113 477.868 113ZM482.108 106.76V95.52C482.108 95.28 481.974 95.16 481.708 95.16H476.108C473.894 95.16 472.788 96.32 472.788 98.64V106.96C472.788 109.28 473.894 110.44 476.108 110.44H478.388C479.588 110.44 480.508 110.12 481.148 109.48C481.788 108.84 482.108 107.933 482.108 106.76ZM492.181 119.28H490.421C490.048 119.28 489.861 119.093 489.861 118.72V117.24C489.861 116.867 490.048 116.68 490.421 116.68H491.421C493.128 116.68 494.328 116.2 495.021 115.24C495.581 114.467 496.088 113.36 496.541 111.92H495.381C495.061 111.92 494.835 111.733 494.701 111.36L488.821 93.16C488.715 92.7867 488.848 92.6 489.221 92.6H491.141C491.488 92.6 491.715 92.7867 491.821 93.16L496.981 109.64H497.141L502.301 93.16C502.381 92.7867 502.595 92.6 502.941 92.6H504.781C505.235 92.6 505.395 92.8 505.261 93.2L499.301 112.2C498.635 114.467 497.781 116.213 496.741 117.44C495.728 118.667 494.208 119.28 492.181 119.28Z" fill="#0A4E92"/>
<defs>
<linearGradient id="paint0_linear_8_2" x1="3.0062" y1="126.006" x2="3.0062" y2="-12174.6" gradientUnits="userSpaceOnUse">
<stop stop-color="#0A4D92"/>
<stop offset="1" stop-color="#00A8CC"/>
</linearGradient>
<clipPath id="clip0_8_2">
<rect width="134" height="123" fill="white" transform="translate(3 3)"/>
</clipPath>
</defs>
</svg>
